<svg xmlns="http://www.w3.org/2000/svg" viewBox="0 0 24 24" width="24" height="24">
  <path fill="white" d="M12 2.2c-3.1 0-3.5 0.01-4.7 0.07-1.2 0.06-2.1 0.23-2.8 0.49-0.7 0.27-1.3 0.68-1.8 1.2-0.5 0.5-0.91 1.1-1.2 1.8-0.27 0.7-0.43 1.6-0.49 2.8-0.06 1.2-0.07 1.6-0.07 4.7s0.01 3.5 0.07 4.7c0.06 1.2 0.23 2.1 0.49 2.8 0.27 0.7 0.68 1.3 1.2 1.8 0.5 0.5 1.1 0.91 1.8 1.2 0.7 0.27 1.6 0.43 2.8 0.49 1.2 0.06 1.6 0.07 4.7 0.07s3.5-0.01 4.7-0.07c1.2-0.06 2.1-0.23 2.8-0.49 0.7-0.27 1.3-0.68 1.8-1.2 0.5-0.5 0.91-1.1 1.2-1.8 0.27-0.7 0.43-1.6 0.49-2.8 0.06-1.2 0.07-1.6 0.07-4.7s-0.01-3.5-0.07-4.7c-0.06-1.2-0.23-2.1-0.49-2.8-0.27-0.7-0.68-1.3-1.2-1.8-0.5-0.5-1.1-0.91-1.8-1.2-0.7-0.27-1.6-0.43-2.8-0.49-1.2-0.06-1.6-0.07-4.7-0.07zM12 5.7c2.1 0 2.4 0.01 3.3 0.05 0.9 0.03 1.4 0.13 1.8 0.27 0.4 0.14 0.74 0.35 1.1 0.68 0.32 0.32 0.56 0.67 0.68 1.1 0.14 0.4 0.24 0.89 0.27 1.8 0.04 0.9 0.05 1.2 0.05 3.3s-0.01 2.4-0.05 3.3c-0.03 0.9-0.13 1.4-0.27 1.8-0.14 0.4-0.35 0.74-0.68 1.1-0.32 0.32-0.67 0.56-1.1 0.68-0.4 0.14-0.89 0.24-1.8 0.27-0.9 0.04-1.2 0.05-3.3 0.05s-2.4-0.01-3.3-0.05c-0.9-0.03-1.4-0.13-1.8-0.27-0.4-0.14-0.74-0.35-1.1-0.68-0.32-0.32-0.56-0.67-0.68-1.1-0.14-0.4-0.24-0.89-0.27-1.8-0.04-0.9-0.05-1.2-0.05-3.3s0.01-2.4 0.05-3.3c0.03-0.9 0.13-1.4 0.27-1.8 0.14-0.4 0.35-0.74 0.68-1.1 0.32-0.32 0.67-0.56 1.1-0.68 0.4-0.14 0.89-0.24 1.8-0.27 0.9-0.04 1.2-0.05 3.3-0.05zM12 9.5c-1.4 0-2.5 1.1-2.5 2.5s1.1 2.5 2.5 2.5 2.5-1.1 2.5-2.5-1.1-2.5-2.5-2.5zM12 13.5c-0.9 0-1.5-0.7-1.5-1.5s0.7-1.5 1.5-1.5 1.5 0.7 1.5 1.5-0.7 1.5-1.5 1.5z"/>
</svg>
