<svg xmlns="http://www.w3.org/2000/svg" viewBox="0 0 24 24" width="24" height="24">
  <path fill="white" d="M23.9 4.4c-0.8 0.4-1.7 0.7-2.6 0.8 0.9-0.6 1.5-1.6 1.8-2.7-0.9 0.5-1.8 0.9-2.8 1.1-0.9-1-2.2-1.7-3.7-1.7-2.8 0-5 2.3-5 5.1 0 0.4 0.1 0.8 0.1 1.2-4.2-0.2-8-2.2-10.5-5.2-0.4 0.7-0.6 1.5-0.6 2.4 0 1.7 0.9 3.2 2.2 4.1-0.8-0.1-1.5-0.3-2.1-0.8v0.1c0 2.3 1.6 4.2 3.8 4.6-0.4 0.1-0.9 0.1-1.3 0.1-0.3 0-0.7 0-1-0.1 0.7 2.1 2.8 3.6 5.2 3.6-1.9 1.5-4.3 2.4-6.8 2.4-0.4 0-0.8 0-1.2-0.1 2.4 1.5 5.2 2.4 8.2 2.4 9.9 0 15.3-8.2 15.3-15.3 0-0.2 0-0.4 0-0.6 1.1-0.8 2.1-1.8 2.9-2.9z"/>
</svg>
